# xmcd CD database file
#
# Track frame offsets:
#	150
#	23619
#	48667
#	86577
#	121374
#	151931
#	179651
#	204068
#	228869
#	252509
#	276701
#
# Disc length: 4088 seconds
#
# Revision: 0
# Processed by: cddbd v1.5.2PL0 Copyright (c) Steve Scherf et al.
# Submitted via: CDex 1.51
#
DISCID=930ff60b
DTITLE=Various Artist - Blue Note Highlights [CD7) Bands and Leaders #2
DYEAR=2009
DGENRE=Jazz
TTITLE0=Johnny Coles - Little Johnny C
TTITLE1=Thad Jones - Tariff
TTITLE2=Tony Williams - Love Song
TTITLE3=Paul Chambers - We Six
TTITLE4=Pete (LaRoca) Sims - Candu (Instrumental)
TTITLE5=Bobby Hutcherson - The Kicker
TTITLE6=Curtis Fuller - Lizzy's Bounce
TTITLE7=Art Blakey And The Jazz Messengers - Down Under
TTITLE8=Kenny Burrell - How About You ?
TTITLE9=Art Taylor - Blue Interlude
TTITLE10=Bennie Green - We Wanna Cook
EXTD=YEAR: 2009
EXTT0=
EXTT1=
EXTT2=
EXTT3=
EXTT4=
EXTT5=
EXTT6=
EXTT7=
EXTT8=
EXTT9=
EXTT10=
PLAYORDER=
